<svg xmlns="http://www.w3.org/2000/svg" viewBox="0 0 64 64" width="64" height="64" role="img" aria-label="Motex">
  <!-- MOTEX belgisi: M harfi. O'rtasi yoqa kabi cho'kkan, ya'ni kiyimga ishora. -->
  <defs>
    <linearGradient id="mx" x1="0" y1="0" x2="1" y2="1">
      <stop offset="0" stop-color="#3B82F6"/>
      <stop offset="1" stop-color="#1D4ED8"/>
    </linearGradient>
  </defs>
  <rect width="64" height="64" rx="15" fill="url(#mx)"/>
  <path fill="#fff" d="M15 47V19.6c0-1 .8-1.6 1.7-1.6h4.6c.6 0 1.2.3 1.5.9l7.9 13.6c.4.7 1.4.7 1.8 0l7.9-13.6c.3-.6.9-.9 1.5-.9h4.4c1 0 1.7.7 1.7 1.6V47h-7.3V32.4l-5.2 8.8c-.9 1.6-3.2 1.6-4.1 0l-5.2-8.8V47H15Z"/>
</svg>
